<svg width="48" height="43" viewBox="0 0 48 43" fill="none" xmlns="http://www.w3.org/2000/svg">
<path fill-rule="evenodd" clip-rule="evenodd" d="M10.5053 25.7131C10.6056 25.7465 10.7087 25.7708 10.8133 25.7855C11.4735 27.341 12.1299 28.8981 12.7826 30.4568C13.9563 33.2615 15.1393 36.1501 15.3983 36.9808C15.7226 38.0028 16.0633 38.6981 16.4366 39.1741C16.6303 39.4168 16.852 39.6315 17.1133 39.7948C17.2495 39.88 17.3951 39.9489 17.5473 40.0001C18.294 40.2801 18.9753 40.1635 19.4023 40.0211C19.6529 39.9356 19.8913 39.818 20.1116 39.6711L20.1233 39.6665L26.7173 35.5551L34.3356 41.3931C34.4476 41.4795 34.569 41.5518 34.6996 41.6101C35.6143 42.0068 36.501 42.1468 37.3363 42.0348C38.167 41.9181 38.8273 41.5705 39.3196 41.1761C39.885 40.7205 40.3357 40.1387 40.6357 39.4775L40.6566 39.4261L40.6636 39.4075L40.6683 39.3981V39.3935L40.6707 39.3911C40.7112 39.2908 40.7425 39.1869 40.764 39.0808L47.7173 4.02247C47.7393 3.91025 47.7502 3.79615 47.75 3.6818C47.75 2.65514 47.3627 1.67747 46.455 1.08714C45.6757 0.580805 44.81 0.557471 44.2616 0.599471C43.6736 0.646138 43.1277 0.790805 42.7613 0.907471C42.5563 0.972466 42.3539 1.04564 42.1546 1.1268L42.129 1.13847L3.12965 16.4358L3.12498 16.4381C2.99303 16.4867 2.86304 16.5404 2.73531 16.5991C2.42606 16.7382 2.1294 16.9037 1.84865 17.0938C1.31898 17.4555 0.0986477 18.4495 0.306314 20.0921C0.469648 21.3988 1.36565 22.2038 1.91398 22.5911C2.21265 22.8035 2.49731 22.9551 2.70731 23.0555C2.80065 23.1021 3.00131 23.1815 3.08765 23.2188L3.11098 23.2258L10.5053 25.7131ZM43.494 4.35847H43.4893C43.4693 4.36739 43.449 4.37595 43.4287 4.38414L4.38265 19.7025C4.36256 19.7106 4.34233 19.7184 4.32198 19.7258L4.29865 19.7328C4.22732 19.7608 4.15725 19.792 4.08865 19.8261C4.15359 19.8633 4.22059 19.8968 4.28931 19.9265L11.6206 22.3951C11.7517 22.4393 11.877 22.4988 11.994 22.5725L36.207 8.39747L36.2303 8.3858C36.3244 8.32865 36.4209 8.27571 36.5197 8.22714C36.6877 8.1408 36.956 8.0148 37.2593 7.92147C37.4693 7.85614 38.0923 7.6718 38.7643 7.8888C39.1208 8.00115 39.4384 8.21148 39.681 8.49575C39.9236 8.78003 40.0814 9.1268 40.1363 9.49647C40.2232 9.82023 40.2256 10.1609 40.1433 10.4858C39.98 11.1275 39.532 11.6268 39.1236 12.0095C38.7736 12.3361 34.233 16.7135 29.7553 21.0348L23.6583 26.9148L22.5733 27.9648L36.2747 38.4695C36.4596 38.5471 36.6604 38.5791 36.8603 38.5628C36.961 38.5491 37.0557 38.5071 37.1333 38.4415C37.2279 38.3616 37.3091 38.2671 37.3736 38.1615L37.3783 38.1591L44.1217 4.15547C43.9092 4.20657 43.701 4.27365 43.4986 4.35614L43.494 4.35847ZM23.7517 33.2778L21.017 31.1825L20.3543 35.3941L23.7517 33.2778ZM18.5086 27.0245L21.227 24.3995L27.324 18.5148L29.5943 16.3261L14.381 25.2325L14.4626 25.4238C15.4221 27.6905 16.371 29.9616 17.3093 32.2371L17.9696 28.0371C18.0294 27.6476 18.2194 27.2921 18.5086 27.0245Z" fill="#161F1C"/>
</svg>
