<svg width="56" height="35" viewBox="0 0 56 35" fill="none" xmlns="http://www.w3.org/2000/svg">
<path fill-rule="evenodd" clip-rule="evenodd" d="M54.6117 28.3517C53.3424 25.7954 51.6697 23.4602 49.658 21.4357C48.9851 20.6753 48.2806 19.9436 47.5463 19.2424L47.4577 19.156C47.185 18.892 46.9159 18.6244 46.6503 18.3534C49.4005 14.5285 51.7538 10.4333 53.6737 6.13136L53.7506 5.9587L53.8043 5.7767C54.0586 4.9297 54.348 3.3197 53.3213 1.8637C52.2573 0.36103 50.5563 0.0903624 49.4153 0.0903624H44.1723C43.0745 0.0403337 41.989 0.338859 41.0711 0.943216C40.1533 1.54757 39.4501 2.42678 39.0623 3.45503C37.934 6.14219 36.5212 8.70087 34.8483 11.0874V4.9437C34.8483 4.15036 34.7736 2.82036 33.922 1.70036C32.9046 0.356363 31.4323 0.0903624 30.4103 0.0903624H22.0896C21.0039 0.0653801 19.9501 0.458939 19.1465 1.18954C18.343 1.92013 17.8512 2.9318 17.773 4.01503L17.766 4.12003V4.22503C17.766 5.3567 18.214 6.19203 18.5733 6.71703C18.7343 6.9527 18.9046 7.16736 19.0143 7.3027L19.0376 7.33303C19.1543 7.4777 19.2313 7.57336 19.3083 7.6807C19.5136 7.95603 19.8053 8.38536 19.8893 9.49136V12.9284C18.2191 10.1314 16.8495 7.16559 15.8036 4.08036L15.785 4.02903L15.7663 3.98003C15.4816 3.2357 15.0266 2.15303 14.1143 1.32703C13.0503 0.358696 11.7903 0.0903624 10.6446 0.0903624H5.32465C4.16498 0.0903624 2.76731 0.36103 1.72431 1.46003C0.69998 2.5427 0.583313 3.84003 0.583313 4.52603V4.8387L0.648646 5.14203C2.12168 11.9805 5.1572 18.3854 9.51765 23.8554C11.5112 26.9991 14.2176 29.6287 17.4175 31.5308C20.6173 33.433 24.2205 34.5541 27.9346 34.8034L28.0303 34.8104H28.1283C29.8223 34.8104 31.5886 34.6634 32.9163 33.779C34.706 32.5844 34.8483 30.7527 34.8483 29.838V27.1827C35.308 27.556 35.8773 28.0554 36.575 28.7274C37.4196 29.572 38.0917 30.3047 38.668 30.944L38.976 31.2847C39.424 31.784 39.865 32.2764 40.2663 32.68C40.7703 33.1864 41.3933 33.744 42.1726 34.157C43.0196 34.6027 43.9086 34.8057 44.8513 34.8057H50.1737C51.296 34.8057 52.9037 34.5397 54.0353 33.2284C55.2673 31.8004 55.174 30.048 54.7866 28.7904L54.7167 28.564L54.6117 28.3517ZM41.265 28.599C40.5418 27.7907 39.7972 27.0017 39.032 26.233L39.025 26.226C35.8586 23.174 34.3816 22.6444 33.3363 22.6444C32.7786 22.6444 32.165 22.705 31.766 23.2044C31.5863 23.4425 31.4685 23.7215 31.423 24.0164C31.3667 24.3587 31.3417 24.7055 31.3483 25.0524V29.838C31.3483 30.433 31.2503 30.6827 30.975 30.8647C30.6086 31.1097 29.827 31.308 28.1493 31.308C24.9625 31.0912 21.8726 30.1211 19.1337 28.4774C16.3949 26.8338 14.0852 24.5635 12.3946 21.8534L12.376 21.823L12.3526 21.795C8.29058 16.7391 5.45962 10.8079 4.08331 4.47003C4.09265 4.1667 4.15798 3.98236 4.26531 3.87036C4.37498 3.7537 4.64331 3.59036 5.32465 3.59036H10.6446C11.235 3.59036 11.543 3.72103 11.7646 3.91936C12.012 4.14803 12.2313 4.53303 12.4926 5.21903C13.7993 9.0597 15.5633 12.653 17.2363 15.2944C18.0716 16.6127 18.893 17.7117 19.635 18.4887C20.006 18.876 20.3676 19.198 20.7153 19.4267C21.049 19.646 21.4293 19.821 21.8213 19.821C22.0266 19.821 22.267 19.7977 22.498 19.6974C22.7475 19.5872 22.9528 19.3966 23.0813 19.156C23.3216 18.7174 23.3893 18.071 23.3893 17.224V9.3537C23.2656 7.44503 22.6893 6.36936 22.1293 5.60636C22.0159 5.45375 21.8992 5.3036 21.7793 5.15603L21.749 5.1187C21.6495 4.99784 21.5545 4.87331 21.4643 4.74536C21.3495 4.60267 21.2803 4.42864 21.266 4.24603C21.2843 4.06061 21.3728 3.88921 21.5133 3.76689C21.6538 3.64456 21.8358 3.58058 22.022 3.58803H30.4103C30.891 3.58803 31.052 3.7047 31.1336 3.81436C31.2503 3.96603 31.3483 4.28103 31.3483 4.9437V15.509C31.3483 16.7644 31.927 17.6137 32.767 17.6137C33.733 17.6137 34.4306 17.028 35.6486 15.81L35.6696 15.7867L35.6883 15.7657C38.4206 12.4344 40.6529 8.72271 42.315 4.7477L42.3243 4.7197C42.4492 4.3685 42.6856 4.06779 42.9973 3.86347C43.3091 3.65914 43.6791 3.56241 44.051 3.58803H49.4177C50.1457 3.58803 50.3837 3.7747 50.463 3.88436C50.5447 4.00103 50.603 4.2507 50.463 4.7407C48.5464 9.02553 46.177 13.0931 43.3953 16.874L43.3766 16.902C43.1083 17.315 42.812 17.7724 42.77 18.295C42.7233 18.8597 42.966 19.3707 43.393 19.9214C43.7033 20.3787 44.345 21.0064 44.996 21.6434L45.0566 21.704C45.738 22.3714 46.4777 23.0947 47.0703 23.7947L47.0867 23.811L47.103 23.8297C48.8703 25.5925 50.3399 27.6303 51.4546 29.8637C51.632 30.4704 51.5246 30.783 51.3846 30.944C51.2236 31.1307 50.862 31.3057 50.176 31.3057H44.8513C44.4884 31.3145 44.1293 31.2302 43.8083 31.0607C43.4149 30.8319 43.0579 30.5456 42.749 30.2114C42.4153 29.8777 42.0536 29.474 41.6103 28.9817L41.265 28.599Z" fill="#161F1C"/>
</svg>
