<svg width="48" height="48" viewBox="0 0 48 48" fill="none" xmlns="http://www.w3.org/2000/svg">
<path d="M24 0.666504C36.887 0.666504 47.3333 11.1128 47.3333 23.9998C47.3333 36.8868 36.887 47.3332 24 47.3332C20.0285 47.339 16.1219 46.3268 12.653 44.3932L11.9413 43.9778L4.86665 46.0592C4.48165 46.1726 4.07406 46.1859 3.68252 46.0976C3.29097 46.0094 2.92844 45.8227 2.6293 45.5551C2.33016 45.2875 2.10431 44.9479 1.97318 44.5686C1.84205 44.1892 1.80997 43.7827 1.87998 43.3875L1.94065 43.1332L4.02198 36.0585C1.82155 32.4215 0.660993 28.2506 0.666647 23.9998C0.666647 11.1128 11.113 0.666504 24 0.666504ZM24 5.33317C20.6578 5.33256 17.3767 6.2293 14.4994 7.92974C11.6221 9.63017 9.25414 12.0719 7.64276 15C6.03138 17.9281 5.2357 21.2352 5.33882 24.5758C5.44193 27.9164 6.44007 31.168 8.22898 33.9912C8.69098 34.7192 8.88931 35.6152 8.73298 36.5042L8.64198 36.8845L7.61298 40.3868L11.1153 39.3578C12.1256 39.0592 13.1756 39.2412 14.0086 39.7708C16.4547 41.3197 19.2276 42.2783 22.108 42.5709C24.9884 42.8635 27.8974 42.4821 30.605 41.4569C33.3126 40.4316 35.7446 38.7906 37.7087 36.6635C39.6729 34.5364 41.1153 31.9816 41.922 29.2011C42.7288 26.4205 42.8776 23.4904 42.3569 20.6424C41.8361 17.7944 40.6601 15.1066 38.9216 12.7914C37.1832 10.4762 34.93 8.59711 32.3403 7.30269C29.7505 6.00827 26.8952 5.334 24 5.33317ZM17.238 12.7625C17.4963 12.6506 17.7793 12.6079 18.0592 12.6386C18.339 12.6693 18.606 12.7723 18.834 12.9375C20.01 13.7962 20.9433 14.9488 21.746 16.0735L22.509 17.1795L22.866 17.7045C23.072 18.0057 23.1731 18.3663 23.1537 18.7307C23.1343 19.095 22.9954 19.4429 22.7586 19.7205L22.5836 19.8978L20.4276 21.4985C20.3239 21.5736 20.2509 21.6838 20.2221 21.8087C20.1934 21.9335 20.2109 22.0646 20.2713 22.1775C20.7613 23.0642 21.627 24.3872 22.621 25.3812C23.6173 26.3752 25.001 27.2992 25.9483 27.8428C26.1536 27.9595 26.401 27.9222 26.569 27.7705L26.6576 27.6655L28.06 25.5305C28.3174 25.1875 28.6976 24.9576 29.1209 24.8889C29.5442 24.8201 29.9776 24.918 30.3303 25.1618L31.5973 26.0462C32.8573 26.9445 34.0683 27.9105 35.0273 29.1355C35.2056 29.3653 35.319 29.6387 35.3555 29.9273C35.3921 30.2158 35.3504 30.5089 35.235 30.7758C34.311 32.9318 31.9706 34.7682 29.5393 34.6795L29.1683 34.6562L28.7226 34.6142C28.6385 34.6042 28.5545 34.5933 28.4706 34.5815L27.9153 34.4882C25.7593 34.0822 22.3036 32.8595 18.722 29.2802C15.1426 25.6985 13.92 22.2428 13.514 20.0868L13.4206 19.5315L13.3623 19.0462L13.332 18.6378C13.3283 18.5795 13.3252 18.5212 13.3226 18.4628C13.234 16.0268 15.0796 13.6865 17.238 12.7625Z" fill="#161F1C"/>
</svg>
