<svg width="56" height="56" viewBox="0 0 56 56" fill="none" xmlns="http://www.w3.org/2000/svg">
<g clip-path="url(#clip0_11_21)">
<rect y="56" width="56" height="56" rx="28" transform="rotate(-90 0 56)" fill="#161F1C"/>
<path d="M24.2823 12.9734L9.33338 28L24.2823 43.0267C24.4173 43.204 24.5888 43.3502 24.7852 43.4554C24.9817 43.5607 25.1984 43.6225 25.4208 43.6367C25.6432 43.6509 25.866 43.6171 26.0742 43.5377C26.2824 43.4583 26.4712 43.335 26.6276 43.1763C26.7841 43.0176 26.9046 42.8272 26.981 42.6179C27.0575 42.4085 27.088 42.1852 27.0707 41.9631C27.0533 41.7409 26.9884 41.5251 26.8804 41.3302C26.7723 41.1352 26.6237 40.9658 26.4445 40.8334L15.26 29.5556L45.0178 29.5556C45.4304 29.5556 45.826 29.3917 46.1178 29.1C46.4095 28.8083 46.5734 28.4126 46.5734 28C46.5734 27.5875 46.4095 27.1918 46.1178 26.9001C45.826 26.6084 45.4304 26.4445 45.0178 26.4445L15.26 26.4445L26.4445 15.1667C26.7353 14.8738 26.8979 14.4773 26.8965 14.0645C26.895 13.6517 26.7296 13.2564 26.4367 12.9656C26.1438 12.6747 25.7473 12.5121 25.3345 12.5136C24.9218 12.5151 24.5265 12.6804 24.2356 12.9734L24.2823 12.9734Z" fill="#EBEBEB"/>
</g>
<defs>
<clipPath id="clip0_11_21">
<rect y="56" width="56" height="56" rx="28" transform="rotate(-90 0 56)" fill="white"/>
</clipPath>
</defs>
</svg>
